<svg width="200" height="200" fill="#F44336" xmlns="http://www.w3.org/2000/svg">
 <g>
  <title>Layer 1</title>
  <g id="svg_1">
   <polygon id="svg_2" points="0,0 192.75601196289062,0 192.75601196289062,192.75601196289062 0,192.75601196289062 0,0 " fill="transparent" clip-rule="evenodd" fill-rule="evenodd"/>
   <path id="svg_3" d="m33.632996,16.584991c-0.908997,8 2.243011,15.27301 8.969009,19.635986c10.485001,7.212006 22.726974,10.059998 32.727005,18.363007c2.727997,2.545013 4.484985,5.696991 3.940002,9.455017c-8.122009,8.968994 -14.243011,20.483978 -10.304016,32.847992c2.848999,9.937988 7.333008,19.210999 12.182007,28.360992c-9.212006,4.546997 -20.787994,9.817993 -24.847992,20.363007c-0.908997,2.665985 -1.878998,5.27301 -2.303009,8.121002c-1.333008,-8.605011 -6.242004,-16.363007 -13.574997,-22.242004c0.54599,3.454987 -0.061005,7.152008 -1.697006,10.061005c-4.483994,6.363007 -7.574997,14.968994 -4.546005,22.847992c1.819,5.515991 7.334,10.666016 12.78801,12.363007c-10.242004,-0.242004 -20.666,-5.514008 -25.272003,-15.149994c-4.059998,-8.605011 -2.242004,-20.242004 3.455002,-27.514008c3.817993,-5.817993 10.423996,-11.09201 8.606003,-18.729004c7.695999,4.425995 17.514984,6.303009 22.423004,15.09201c0.605988,-0.848022 0,-1.938995 0,-2.910004c-2.848022,-9.938019 -13.939011,-10.968994 -21.090012,-15.81601c-7.574997,-3.031006 -14.242004,-10.850006 -14.727005,-19.210999c-0.666992,-4.970001 -0.242996,-10.242004 1.879013,-14.424011c4.786987,8.909027 14.90799,11.030029 22.725998,15.576019c4.666992,2.484009 10.061005,4.544006 13.091003,9.756989c0.182007,-4.182007 -2.364014,-7.878998 -5.817993,-10.484985c-12.545013,-6.787994 -32.545013,-12.848022 -32.90802,-30.848022c-0.181992,-5.15097 1.151001,-9.635986 3.394012,-13.817993c0.605988,0.606018 0.605988,1.757996 1.151001,2.485016c7.938995,11.938995 21.453995,13.151001 31.393982,22c1.515015,1.514984 2.423004,3.393982 3.636017,5.089996c1.031006,-4.908997 -1.696991,-9.333008 -5.817993,-12.121002c-2.72702,-1.757996 -5.939026,-2.787994 -8.545013,-4.605988c-9.697006,-4.182007 -21.757004,-12.72702 -22.121002,-24.605011c-1.757996,-10.666992 3.938995,-20.059998 12.666,-26.302002c-0.485001,1.817017 -1.455002,4.059998 -1.455002,6.362l0,0z" clip-rule="evenodd" fill-rule="evenodd"/>
   <path id="svg_4" d="m97.752014,162.21701c2.727997,-10.061005 -2.424011,-21.332001 1.574982,-31.149994c0,-0.242004 0.122009,-0.545013 -0.120972,-0.72702c-2.242004,1.818024 -4.060028,3.695007 -6.242004,5.697021c3.393982,-6.971008 6.181,-15.516022 4.363983,-24.182007c-0.242981,-0.667999 -0.787994,0 -0.908997,0.303009c-1.817993,5.392975 -7.151001,9.270996 -12.061005,11.636993c-6.121002,-12 -13.453979,-23.636993 -12.786987,-38.242004c1.514984,-13.333008 14.544983,-21.45401 19.938995,-33.149994c1.272003,-4.122009 0.484009,-8.848999 -2.484985,-11.938995c-2.84903,-2.788025 -6.303009,-4.061005 -10.060028,-4.666016c0.484009,-1.636993 1.757019,-3.333008 3.394012,-4.061005c3.272003,-1.635986 7.151001,-0.181976 10.181,1.029999c5.091003,-2.423981 11.151001,-0.121002 15.817017,2c4.54599,2 8.241974,6.121002 13.696991,6c-0.122009,1.394012 -1.757996,2.364014 -2.908997,2.908997c-4.303009,0.606018 -8,-1.514984 -11.636017,-2.484985c4.363007,6.970001 2.605011,16.363007 0.121002,23.696014c0.059998,0.060974 0.121002,0.121979 0.182007,0.121979c4.786987,-6.605988 12.059998,-11.091003 18.90802,-14.666992c7.151001,-3.45401 14.362976,-6.72699 21.514984,-10.302002c6.727997,-4.122009 12.423981,-11.212006 12.182007,-19.514984c-0.182007,-2.970001 -0.606018,-5.879028 -1.878998,-8.425018c8.969971,6.061005 13.695984,15.333008 12.544983,26c-0.90799,10.061005 -8.970001,19.938995 -18.483978,23.151001c-7.272003,4.666016 -19.999023,7.272003 -20.363007,18.302002c2.303986,-3.635986 6,-6.848999 9.878998,-8.545013c10,-5.878998 22.786987,-8.242981 28.483978,-20.060974c0.121002,0 0.242004,0 0.303009,0c4.242004,8.908997 3.272003,21.272003 -3.635986,28.60498c-8,8.606018 -19.151001,10.302002 -28.363007,16.484009c-4.303009,2.665985 -6.666992,7.152008 -6.848999,11.757996c5.091003,-9.515991 15.817993,-10.971008 24,-15.696991c5.333008,-2.606018 11.151001,-5.394012 14.72699,-10.605011c0.061005,0 0.182007,0 0.303009,0c2.424988,9.636017 1.45401,21.391998 -6.72699,28.059998c-7.45401,6 -16.363007,8.545013 -24.303009,13.514008c-2.606018,1.938995 -4.121002,4.545013 -5.091003,7.27301c0.121002,0.121002 0.243011,0.181976 0.303009,0.302979c6.970001,-7.27298 16.908997,-7.454987 24.423981,-13.394989c-1.453979,10.729004 9.757996,16.786987 11.091003,26.60498c2.484009,10.969025 -1.333008,21.697021 -10.061005,28.787018c-5.393982,4.061005 -12.362,4.850006 -19.210999,4.971008c1.212006,-0.242004 2.484009,-0.850006 3.817017,-1.031006c5.878998,-2.121002 11.212006,-7.817993 11.635986,-14.242004c0.848999,-10.968994 -10.242004,-19.63501 -3.937988,-30.664001c-1.757996,0.119019 -3.272003,1.695007 -4.970001,2.605011c-9.151001,6.121002 -12.908997,16.061005 -18.90802,24.300995c-0.061981,0 -0.182983,0 -0.242981,0c3.575989,-5.877014 1.515991,-14.118988 6.242004,-19.514008c0.54599,-0.302979 0.666992,-1.09198 1.030975,-1.575989c-3.27298,0.363007 -6.303986,2.242004 -9.029999,4.363007c-13.938995,9.394989 -14.847992,29.454987 -32.422974,34c-4.606018,1.332001 -10.059998,1.757996 -14.848022,1.332001c7.816986,-1.149017 15.998993,-6.907013 17.877014,-14.96701l0,0zm7.696991,-9.637024c6.90802,-9.210999 21.816986,-12.786987 22.968994,-25.755981c-1.938995,1.696991 -4.242004,2.544983 -6.242004,4.241974c-0.182007,0.061005 -0.54599,0.303009 -0.727997,0c1.757996,-3.149994 2.484009,-6.72699 3.333008,-10.181976c0.242981,-2.121002 0.787994,-4.424011 0.908997,-6.242004c-5.45401,5.454987 -12.970001,7.515991 -17.151001,14.544983c-4.968994,6.72702 -2.726013,15.516022 -3.089996,23.393005l0,0z" clip-rule="evenodd" fill-rule="evenodd"/>
   <path id="svg_5" d="m84.963989,134.278992c-4,8.545013 0.787994,19.997986 -4.059998,28.360992c-4.666992,9.515991 -14.968994,15.636993 -25.937988,14.545013c3.756989,-0.848022 6.786987,-4.848022 7.756989,-8.300995c1.817993,-7.152008 0.605988,-15.637024 5.514984,-21.516022c4.605011,-7.333984 12.484009,-10.061005 18.302002,-16c0.000031,0.851013 -1.210968,1.880005 -1.575989,2.911011l0,0z" clip-rule="evenodd" fill-rule="evenodd"/>
   <path id="svg_6" d="m146.477997,146.21701c-2.90799,6.122986 0.242004,13.152008 -2.605011,19.636993c-2.303986,5.878998 -8.483978,10.242004 -14.544983,11.028992c-7.212006,0.607025 -14.303009,0.607025 -21.515015,0.607025c14.424011,-2.426025 26.303009,-14.303009 33.999023,-26.787018c1.272003,-1.636993 2.908997,-3.455017 4.665985,-4.485992l0,0z" clip-rule="evenodd" fill-rule="evenodd"/>
  </g>
 </g>
</svg>